M48
; DRILL file {KiCad 7.0.1} date Wed Mar 22 21:04:31 2023
; FORMAT={-:-/ absolute / metric / decimal}
; #@! TF.CreationDate,2023-03-22T21:04:31-04:00
; #@! TF.GenerationSoftware,Kicad,Pcbnew,7.0.1
; #@! TF.FileFunction,Plated,1,2,PTH
FMAT,2
METRIC
; #@! TA.AperFunction,Plated,PTH,ViaDrill
T1C0.300
; #@! TA.AperFunction,Plated,PTH,ViaDrill
T2C0.400
; #@! TA.AperFunction,Plated,PTH,ViaDrill
T3C0.500
; #@! TA.AperFunction,Plated,PTH,ComponentDrill
T4C0.500
; #@! TA.AperFunction,Plated,PTH,ComponentDrill
T5C0.600
; #@! TA.AperFunction,Plated,PTH,ComponentDrill
T6C0.750
; #@! TA.AperFunction,Plated,PTH,ComponentDrill
T7C0.762
; #@! TA.AperFunction,Plated,PTH,ComponentDrill
T8C0.850
; #@! TA.AperFunction,Plated,PTH,ComponentDrill
T9C1.000
; #@! TA.AperFunction,Plated,PTH,ComponentDrill
T10C1.300
; #@! TA.AperFunction,Plated,PTH,ComponentDrill
T11C2.700
%
G90
G05
T1
X214.27Y-150.61
X215.0Y-146.84
X215.01Y-155.47
X216.24Y-150.16
X219.97Y-145.7
X220.47Y-158.84
X222.21Y-144.72
X222.25Y-145.72
X224.4Y-145.38
X225.24Y-145.39
X226.75Y-155.56
X227.6Y-146.8
X227.6Y-151.85
X227.64Y-145.41
X228.4Y-157.87
X228.51Y-151.81
X228.71Y-180.19
X230.9Y-145.89
X230.9Y-151.12
X234.3Y-173.0
X235.42Y-145.62
X238.25Y-170.82
X241.03Y-155.97
X242.13Y-174.6
X242.13Y-178.25
X242.13Y-181.92
X245.92Y-155.95
X248.39Y-182.8
X248.9Y-181.92
X249.11Y-161.54
X249.88Y-161.53
X249.96Y-181.73
X250.59Y-169.27
X250.65Y-160.64
X250.7Y-161.48
X251.19Y-168.66
X251.59Y-159.68
X251.66Y-178.69
X252.3Y-170.0
X252.82Y-178.67
X253.1Y-169.3
X253.1Y-170.0
X253.8Y-168.6
X253.8Y-169.3
X253.8Y-170.0
X253.83Y-161.48
X255.29Y-162.8
X255.29Y-163.63
X255.67Y-183.79
X255.86Y-182.92
X255.9Y-182.0
X256.93Y-178.12
X257.33Y-176.191
X257.6Y-171.8
X257.6Y-172.4
X257.6Y-173.0
X257.6Y-173.6
X258.16Y-184.93
X258.3Y-173.6
X258.9Y-153.34
X258.9Y-154.95
X259.3Y-158.0
X259.38Y-169.44
X259.4Y-161.1
X259.4Y-162.2
X259.4Y-164.9
X259.42Y-163.65
X260.2Y-158.6
X260.95Y-163.65
X261.34Y-167.48
X261.76Y-184.7
X262.1Y-166.0
X262.37Y-183.71
X262.79Y-168.21
X263.47Y-168.83
X264.0Y-153.4
X264.0Y-156.0
X264.0Y-157.2
X264.0Y-159.8
X264.01Y-152.28
X264.05Y-173.78
X264.55Y-151.54
X264.72Y-177.95
X265.1Y-157.79
X265.3Y-168.23
X265.9Y-164.3
X266.33Y-178.39
X266.8Y-189.1
X268.02Y-186.47
X268.4Y-170.9
X268.4Y-203.8
X268.7Y-164.1
X269.2Y-201.5
X269.25Y-208.05
X269.5Y-159.8
X269.5Y-160.9
X269.66Y-184.89
X269.81Y-173.82
X270.0Y-164.1
X270.2Y-208.05
X270.75Y-186.58
X271.24Y-191.88
X271.6Y-160.66
X271.7Y-169.9
X271.89Y-190.03
X272.12Y-198.97
X272.2Y-178.8
X272.2Y-204.4
X272.2Y-210.65
X272.5Y-164.0
X272.59Y-194.24
X272.76Y-190.01
X272.9Y-168.3
X273.1Y-208.05
X273.3Y-213.5
X273.59Y-196.26
X273.6Y-212.5
X273.7Y-158.8
X273.7Y-164.0
X273.97Y-197.45
X274.0Y-159.9
X274.2Y-168.7
X274.3Y-204.85
X274.41Y-189.62
X274.54Y-149.02
X275.1Y-171.5
X275.3Y-177.1
X275.39Y-149.12
X275.39Y-150.83
X275.4Y-155.0
X275.4Y-206.7
X275.5Y-169.9
X275.59Y-187.45
X275.7Y-201.5
X275.7Y-203.6
X276.1Y-153.4
X276.12Y-170.25
X277.1Y-203.5
X277.22Y-166.34
X277.41Y-215.38
X277.5Y-157.2
X277.5Y-158.5
X277.5Y-161.0
X277.5Y-162.3
X277.51Y-214.29
X277.65Y-154.67
X277.96Y-167.05
X278.04Y-186.32
X278.09Y-197.87
X278.3Y-177.7
X278.49Y-203.77
X280.65Y-170.25
X280.7Y-203.2
X280.7Y-208.1
X281.3Y-157.9
X281.3Y-170.8
X281.6Y-177.7
X281.66Y-191.23
X281.8Y-178.4
X282.4Y-203.2
X282.6Y-197.7
X282.9Y-173.39
X283.02Y-176.3
X283.2Y-180.1
X283.23Y-187.13
X283.62Y-170.76
X283.7Y-157.2
X283.7Y-173.2
X283.7Y-177.7
X283.78Y-183.4
X283.8Y-168.3
X283.84Y-212.14
X284.0Y-207.3
X284.1Y-201.9
X284.73Y-214.71
X284.74Y-215.38
X285.1Y-208.3
X286.4Y-184.5
X287.22Y-216.01
X288.26Y-202.84
X288.89Y-170.18
X289.1Y-174.4
X289.95Y-169.52
T2
X204.5Y-220.5
X205.7Y-221.9
X206.6Y-142.4
X206.6Y-143.8
X206.6Y-145.2
X206.9Y-223.2
X208.1Y-224.5
X213.4Y-183.0
X213.8Y-181.5
X214.8Y-184.5
X215.3Y-183.1
X215.4Y-181.4
X216.0Y-185.8
X216.7Y-184.6
X216.8Y-183.1
X217.2Y-187.3
X218.0Y-186.0
X218.7Y-184.8
X219.1Y-187.4
X219.9Y-186.1
X220.9Y-184.9
X220.9Y-187.4
X221.9Y-186.1
X222.33Y-154.29
X222.7Y-184.9
X222.7Y-187.4
X223.6Y-186.1
X224.7Y-185.0
X224.7Y-187.4
X225.17Y-154.3
X225.6Y-186.2
X226.7Y-187.4
X226.8Y-185.0
X227.6Y-186.2
X228.5Y-187.4
X228.7Y-185.0
X229.7Y-186.2
X233.2Y-142.4
X234.8Y-142.4
X236.0Y-184.21
X238.11Y-172.8
X238.11Y-176.75
X239.97Y-183.75
X240.5Y-148.8
X240.5Y-150.3
X240.5Y-151.9
X243.59Y-163.92
X245.95Y-179.53
X248.08Y-188.42
X252.0Y-183.8
X253.1Y-142.4
X254.7Y-142.4
X261.1Y-170.1
X261.97Y-186.36
X263.3Y-185.03
X265.6Y-171.1
X266.1Y-175.1
X266.4Y-163.6
X267.6Y-162.3
X269.5Y-162.3
X271.6Y-162.3
X275.5Y-147.8
X281.8Y-223.4
X282.8Y-222.5
X282.9Y-224.3
X283.8Y-223.3
X284.1Y-221.7
X284.1Y-225.0
X285.8Y-146.8
X290.0Y-146.9
T3
X204.59Y-156.39
X218.17Y-168.39
T4
X200.125Y-143.82
X200.135Y-223.65
X200.718Y-142.388
X200.718Y-145.252
X200.728Y-222.218
X200.728Y-225.082
X202.15Y-141.795
X202.15Y-145.845
X202.16Y-221.625
X202.16Y-225.675
X203.582Y-142.388
X203.582Y-145.252
X203.592Y-222.218
X203.592Y-225.082
X204.175Y-143.82
X204.185Y-223.65
X285.935Y-143.82
X285.945Y-223.64
X286.528Y-142.388
X286.528Y-145.252
X286.538Y-222.208
X286.538Y-225.072
X287.96Y-141.795
X287.96Y-145.845
X287.97Y-221.615
X287.97Y-225.665
X289.392Y-142.388
X289.392Y-145.252
X289.402Y-222.208
X289.402Y-225.072
X289.985Y-143.82
X289.995Y-223.64
T5
X202.1Y-192.53
X204.6Y-187.53
T6
X253.5Y-171.8
X253.5Y-174.34
X254.77Y-173.07
T7
X233.82Y-147.028
X233.82Y-149.567
X233.82Y-152.107
X233.82Y-154.647
X233.82Y-157.188
X233.82Y-159.727
X254.14Y-147.028
X254.14Y-149.567
X254.14Y-152.107
X254.14Y-154.647
X254.14Y-157.188
X254.14Y-159.727
T8
X286.007Y-212.21
X286.007Y-217.21
T9
X207.95Y-215.77
X210.15Y-176.51
X211.45Y-178.562
X216.15Y-210.11
X216.65Y-207.962
X217.95Y-215.77
X221.65Y-207.962
X222.15Y-210.11
X226.85Y-178.562
X228.15Y-176.51
X285.195Y-150.775
X285.195Y-153.315
X285.195Y-155.855
X285.195Y-158.395
X285.195Y-160.935
X285.195Y-163.475
X285.195Y-166.015
X285.195Y-168.555
X285.195Y-171.095
X285.195Y-173.635
X285.195Y-176.175
X285.195Y-178.715
X285.195Y-181.255
X285.195Y-183.795
X285.195Y-186.335
X285.195Y-188.875
X285.195Y-191.415
X285.195Y-193.955
X285.195Y-196.495
X285.195Y-199.035
X287.735Y-150.775
X287.735Y-153.315
X287.735Y-155.855
X287.735Y-158.395
X287.735Y-160.935
X287.735Y-163.475
X287.735Y-166.015
X287.735Y-168.555
X287.735Y-171.095
X287.735Y-173.635
X287.735Y-176.175
X287.735Y-178.715
X287.735Y-181.255
X287.735Y-183.795
X287.735Y-186.335
X287.735Y-188.875
X287.735Y-191.415
X287.735Y-193.955
X287.735Y-196.495
X287.735Y-199.035
T10
X203.39Y-196.8
X203.39Y-202.0
X203.39Y-212.1
X203.39Y-217.3
X212.87Y-223.16
X217.87Y-223.16
X222.87Y-223.16
X227.87Y-223.16
X232.87Y-223.16
X233.76Y-196.6
X233.76Y-208.8
X237.87Y-223.16
X239.76Y-194.6
X242.87Y-223.16
X245.76Y-196.6
X245.76Y-208.8
X247.87Y-223.16
X250.27Y-196.6
X250.27Y-208.8
X252.87Y-223.16
X256.27Y-194.6
X257.87Y-223.16
X262.27Y-196.6
X262.27Y-208.8
X262.87Y-223.16
X267.87Y-223.16
X272.87Y-223.16
X277.87Y-223.16
T11
X202.15Y-143.82
X202.16Y-223.65
X287.96Y-143.82
X287.97Y-223.64
T5
G00X288.357Y-211.21
M15
G01X289.058Y-211.21
M16
G05
G00X289.058Y-218.21
M15
G01X288.357Y-218.21
M16
G05
T0
M30
