%TF.GenerationSoftware,KiCad,Pcbnew,7.0.1*%
%TF.CreationDate,2023-03-22T21:04:12-04:00*%
%TF.ProjectId,esp32_pro_relay,65737033-325f-4707-926f-5f72656c6179,rev?*%
%TF.SameCoordinates,Original*%
%TF.FileFunction,Soldermask,Top*%
%TF.FilePolarity,Negative*%
%FSLAX46Y46*%
G04 Gerber Fmt 4.6, Leading zero omitted, Abs format (unit mm)*
G04 Created by KiCad (PCBNEW 7.0.1) date 2023-03-22 21:04:12*
%MOMM*%
%LPD*%
G01*
G04 APERTURE LIST*
G04 Aperture macros list*
%AMRoundRect*
0 Rectangle with rounded corners*
0 $1 Rounding radius*
0 $2 $3 $4 $5 $6 $7 $8 $9 X,Y pos of 4 corners*
0 Add a 4 corners polygon primitive as box body*
4,1,4,$2,$3,$4,$5,$6,$7,$8,$9,$2,$3,0*
0 Add four circle primitives for the rounded corners*
1,1,$1+$1,$2,$3*
1,1,$1+$1,$4,$5*
1,1,$1+$1,$6,$7*
1,1,$1+$1,$8,$9*
0 Add four rect primitives between the rounded corners*
20,1,$1+$1,$2,$3,$4,$5,0*
20,1,$1+$1,$4,$5,$6,$7,0*
20,1,$1+$1,$6,$7,$8,$9,0*
20,1,$1+$1,$8,$9,$2,$3,0*%
G04 Aperture macros list end*
%ADD10RoundRect,0.225000X-0.225000X-0.250000X0.225000X-0.250000X0.225000X0.250000X-0.225000X0.250000X0*%
%ADD11R,2.600000X2.600000*%
%ADD12C,2.600000*%
%ADD13R,2.500000X1.800000*%
%ADD14RoundRect,0.200000X0.200000X0.275000X-0.200000X0.275000X-0.200000X-0.275000X0.200000X-0.275000X0*%
%ADD15R,2.000000X0.900000*%
%ADD16R,0.900000X2.000000*%
%ADD17R,5.000000X5.000000*%
%ADD18RoundRect,0.125000X-0.825000X-0.125000X0.825000X-0.125000X0.825000X0.125000X-0.825000X0.125000X0*%
%ADD19RoundRect,0.150000X-0.150000X0.587500X-0.150000X-0.587500X0.150000X-0.587500X0.150000X0.587500X0*%
%ADD20RoundRect,0.250000X-0.262500X-0.450000X0.262500X-0.450000X0.262500X0.450000X-0.262500X0.450000X0*%
%ADD21RoundRect,0.225000X0.225000X0.250000X-0.225000X0.250000X-0.225000X-0.250000X0.225000X-0.250000X0*%
%ADD22C,5.400000*%
%ADD23C,0.800000*%
%ADD24RoundRect,0.200000X0.275000X-0.200000X0.275000X0.200000X-0.275000X0.200000X-0.275000X-0.200000X0*%
%ADD25RoundRect,0.200000X-0.275000X0.200000X-0.275000X-0.200000X0.275000X-0.200000X0.275000X0.200000X0*%
%ADD26R,2.000000X2.000000*%
%ADD27C,2.000000*%
%ADD28R,0.900000X1.200000*%
%ADD29R,0.500000X0.800000*%
%ADD30R,0.400000X0.800000*%
%ADD31R,2.900000X5.400000*%
%ADD32RoundRect,0.250000X0.262500X0.450000X-0.262500X0.450000X-0.262500X-0.450000X0.262500X-0.450000X0*%
%ADD33RoundRect,0.200000X-0.200000X-0.275000X0.200000X-0.275000X0.200000X0.275000X-0.200000X0.275000X0*%
%ADD34RoundRect,0.218750X0.218750X0.256250X-0.218750X0.256250X-0.218750X-0.256250X0.218750X-0.256250X0*%
%ADD35RoundRect,0.225000X-0.250000X0.225000X-0.250000X-0.225000X0.250000X-0.225000X0.250000X0.225000X0*%
%ADD36R,1.350000X0.400000*%
%ADD37R,1.900000X1.500000*%
%ADD38C,1.450000*%
%ADD39O,1.900000X1.200000*%
%ADD40R,1.900000X1.200000*%
%ADD41R,1.700000X1.700000*%
%ADD42O,1.700000X1.700000*%
%ADD43C,1.600000*%
%ADD44C,2.300000*%
%ADD45R,0.850000X1.100000*%
%ADD46R,0.750000X1.100000*%
%ADD47R,1.200000X1.000000*%
%ADD48R,1.170000X1.800000*%
%ADD49R,1.900000X1.350000*%
%ADD50R,1.550000X1.350000*%
%ADD51RoundRect,0.218750X0.218750X0.381250X-0.218750X0.381250X-0.218750X-0.381250X0.218750X-0.381250X0*%
%ADD52RoundRect,0.250000X0.550000X-1.500000X0.550000X1.500000X-0.550000X1.500000X-0.550000X-1.500000X0*%
%ADD53C,1.800000*%
%ADD54R,2.800000X1.000000*%
%ADD55R,4.500000X2.000000*%
%ADD56R,1.800000X1.100000*%
%ADD57RoundRect,0.275000X-0.625000X0.275000X-0.625000X-0.275000X0.625000X-0.275000X0.625000X0.275000X0*%
%ADD58RoundRect,0.150000X-0.512500X-0.150000X0.512500X-0.150000X0.512500X0.150000X-0.512500X0.150000X0*%
%ADD59C,3.000000*%
%ADD60R,4.600000X1.100000*%
%ADD61R,9.400000X10.800000*%
%ADD62R,1.500000X2.000000*%
%ADD63R,1.500000X1.000000*%
%ADD64R,1.500000X3.600000*%
%ADD65RoundRect,0.250000X-0.550000X1.500000X-0.550000X-1.500000X0.550000X-1.500000X0.550000X1.500000X0*%
G04 APERTURE END LIST*
D10*
%TO.C,C11*%
X239415000Y-181920000D03*
X240965000Y-181920000D03*
%TD*%
D11*
%TO.C,J3*%
X212870000Y-223160000D03*
D12*
X217870000Y-223160000D03*
X222870000Y-223160000D03*
X227870000Y-223160000D03*
X232870000Y-223160000D03*
X237870000Y-223160000D03*
X242870000Y-223160000D03*
X247870000Y-223160000D03*
X252870000Y-223160000D03*
X257870000Y-223160000D03*
X262870000Y-223160000D03*
X267870000Y-223160000D03*
X272870000Y-223160000D03*
X277870000Y-223160000D03*
%TD*%
D13*
%TO.C,D3*%
X224160000Y-170640000D03*
X228160000Y-170640000D03*
%TD*%
D10*
%TO.C,C8*%
X227325000Y-164700000D03*
X228875000Y-164700000D03*
%TD*%
%TO.C,C17*%
X239425000Y-172800000D03*
X240975000Y-172800000D03*
%TD*%
D14*
%TO.C,Ra1*%
X241025000Y-180060000D03*
X239375000Y-180060000D03*
%TD*%
D10*
%TO.C,C14*%
X279175000Y-201870000D03*
X280725000Y-201870000D03*
%TD*%
D15*
%TO.C,U1*%
X262110000Y-148335000D03*
X262110000Y-149605000D03*
X262110000Y-150875000D03*
X262110000Y-152145000D03*
X262110000Y-153415000D03*
X262110000Y-154685000D03*
X262110000Y-155955000D03*
X262110000Y-157225000D03*
X262110000Y-158495000D03*
X262110000Y-159765000D03*
X262110000Y-161035000D03*
X262110000Y-162305000D03*
X262110000Y-163575000D03*
X262110000Y-164845000D03*
D16*
X264895000Y-165845000D03*
X266165000Y-165845000D03*
X267435000Y-165845000D03*
X268705000Y-165845000D03*
X269975000Y-165845000D03*
X271245000Y-165845000D03*
X272515000Y-165845000D03*
X273785000Y-165845000D03*
X275055000Y-165845000D03*
X276325000Y-165845000D03*
D15*
X279110000Y-164845000D03*
X279110000Y-163575000D03*
X279110000Y-162305000D03*
X279110000Y-161035000D03*
X279110000Y-159765000D03*
X279110000Y-158495000D03*
X279110000Y-157225000D03*
X279110000Y-155955000D03*
X279110000Y-154685000D03*
X279110000Y-153415000D03*
X279110000Y-152145000D03*
X279110000Y-150875000D03*
X279110000Y-149605000D03*
X279110000Y-148335000D03*
D17*
X269610000Y-155835000D03*
%TD*%
D18*
%TO.C,U4*%
X275520000Y-211475000D03*
X275520000Y-212125000D03*
X275520000Y-212775000D03*
X275520000Y-213425000D03*
X275520000Y-214075000D03*
X275520000Y-214725000D03*
X275520000Y-215375000D03*
X275520000Y-216025000D03*
X275520000Y-216675000D03*
X275520000Y-217325000D03*
X282520000Y-217325000D03*
X282520000Y-216675000D03*
X282520000Y-216025000D03*
X282520000Y-215375000D03*
X282520000Y-214725000D03*
X282520000Y-214075000D03*
X282520000Y-213425000D03*
X282520000Y-212775000D03*
X282520000Y-212125000D03*
X282520000Y-211475000D03*
%TD*%
D14*
%TO.C,R3*%
X237635000Y-185600000D03*
X235985000Y-185600000D03*
%TD*%
D19*
%TO.C,D6*%
X275150000Y-200162500D03*
X273250000Y-200162500D03*
X274200000Y-202037500D03*
%TD*%
D20*
%TO.C,R28*%
X265387500Y-185200000D03*
X267212500Y-185200000D03*
%TD*%
D21*
%TO.C,C6*%
X219095000Y-173130000D03*
X217545000Y-173130000D03*
%TD*%
D22*
%TO.C,H3*%
X287960000Y-143820000D03*
D23*
X286528109Y-145251891D03*
X289391891Y-142388109D03*
X286528109Y-142388109D03*
X285935000Y-143820000D03*
X287960000Y-145845000D03*
X289985000Y-143820000D03*
X289391891Y-145251891D03*
X287960000Y-141795000D03*
%TD*%
D21*
%TO.C,C9*%
X236975000Y-173000000D03*
X235425000Y-173000000D03*
%TD*%
D24*
%TO.C,R24*%
X269300000Y-180425000D03*
X269300000Y-178775000D03*
%TD*%
D13*
%TO.C,D8*%
X236200000Y-169900000D03*
X232200000Y-169900000D03*
%TD*%
D14*
%TO.C,R20*%
X228925000Y-167800000D03*
X227275000Y-167800000D03*
%TD*%
D25*
%TO.C,R9*%
X259800000Y-175475000D03*
X259800000Y-177125000D03*
%TD*%
D10*
%TO.C,C1*%
X216965000Y-157730000D03*
X218515000Y-157730000D03*
%TD*%
D26*
%TO.C,PS2*%
X216650000Y-207962500D03*
D27*
X221650000Y-207962500D03*
X211450000Y-178562500D03*
X226850000Y-178562500D03*
%TD*%
D28*
%TO.C,D2*%
X251450000Y-187850000D03*
X254750000Y-187850000D03*
%TD*%
D24*
%TO.C,R25*%
X269300000Y-183625000D03*
X269300000Y-181975000D03*
%TD*%
D14*
%TO.C,R15*%
X274825000Y-198000000D03*
X273175000Y-198000000D03*
%TD*%
D29*
%TO.C,RN1*%
X228400000Y-160900000D03*
D30*
X229200000Y-160900000D03*
X230000000Y-160900000D03*
D29*
X230800000Y-160900000D03*
X230800000Y-159100000D03*
D30*
X230000000Y-159100000D03*
X229200000Y-159100000D03*
D29*
X228400000Y-159100000D03*
%TD*%
D24*
%TO.C,R12*%
X215000000Y-153225000D03*
X215000000Y-151575000D03*
%TD*%
D19*
%TO.C,Q3*%
X275150000Y-204912500D03*
X273250000Y-204912500D03*
X274200000Y-206787500D03*
%TD*%
D24*
%TO.C,R11*%
X215000000Y-149725000D03*
X215000000Y-148075000D03*
%TD*%
D21*
%TO.C,C3*%
X259075000Y-148050000D03*
X257525000Y-148050000D03*
%TD*%
D14*
%TO.C,R1*%
X247325000Y-181920000D03*
X245675000Y-181920000D03*
%TD*%
D10*
%TO.C,C12*%
X239425000Y-178250000D03*
X240975000Y-178250000D03*
%TD*%
D23*
%TO.C,H2*%
X289995000Y-223640000D03*
X287970000Y-221615000D03*
X289401891Y-225071891D03*
X285945000Y-223640000D03*
X286538109Y-225071891D03*
X289401891Y-222208109D03*
D22*
X287970000Y-223640000D03*
D23*
X287970000Y-225665000D03*
X286538109Y-222208109D03*
%TD*%
D24*
%TO.C,R16*%
X269250000Y-210625000D03*
X269250000Y-208975000D03*
%TD*%
D19*
%TO.C,Q7*%
X273250000Y-181062500D03*
X271350000Y-181062500D03*
X272300000Y-182937500D03*
%TD*%
D31*
%TO.C,L2*%
X201950000Y-153890000D03*
X211850000Y-153890000D03*
%TD*%
D27*
%TO.C,C4*%
X207950000Y-215770000D03*
X217950000Y-215770000D03*
%TD*%
D19*
%TO.C,Q5*%
X281550000Y-195662500D03*
X279650000Y-195662500D03*
X280600000Y-197537500D03*
%TD*%
D32*
%TO.C,R30*%
X279212500Y-185200000D03*
X277387500Y-185200000D03*
%TD*%
D33*
%TO.C,R4*%
X257245000Y-182070000D03*
X258895000Y-182070000D03*
%TD*%
D34*
%TO.C,RL_LD2*%
X254717500Y-185630000D03*
X253142500Y-185630000D03*
%TD*%
D20*
%TO.C,R29*%
X271387500Y-185200000D03*
X273212500Y-185200000D03*
%TD*%
D33*
%TO.C,R13*%
X257525000Y-150900000D03*
X259175000Y-150900000D03*
%TD*%
D34*
%TO.C,RL_LD1*%
X241027500Y-185580000D03*
X239452500Y-185580000D03*
%TD*%
D33*
%TO.C,R21*%
X239375000Y-170800000D03*
X241025000Y-170800000D03*
%TD*%
D19*
%TO.C,Q6*%
X267250000Y-181062500D03*
X265350000Y-181062500D03*
X266300000Y-182937500D03*
%TD*%
D35*
%TO.C,C2*%
X281300000Y-173425000D03*
X281300000Y-174975000D03*
%TD*%
D33*
%TO.C,R19*%
X253875000Y-177900000D03*
X255525000Y-177900000D03*
%TD*%
D24*
%TO.C,R23*%
X263500000Y-183625000D03*
X263500000Y-181975000D03*
%TD*%
D21*
%TO.C,C15*%
X286905000Y-201870000D03*
X285355000Y-201870000D03*
%TD*%
D28*
%TO.C,D1*%
X237750000Y-187820000D03*
X241050000Y-187820000D03*
%TD*%
D24*
%TO.C,R17*%
X271150000Y-210625000D03*
X271150000Y-208975000D03*
%TD*%
D36*
%TO.C,USB1*%
X286007500Y-216010000D03*
X286007500Y-215360000D03*
X286007500Y-214710000D03*
X286007500Y-214060000D03*
X286007500Y-213410000D03*
D37*
X288707500Y-215710000D03*
D38*
X286007500Y-217210000D03*
D37*
X288707500Y-213710000D03*
D39*
X288707500Y-211210000D03*
D40*
X288707500Y-211810000D03*
X288707500Y-217610000D03*
D38*
X286007500Y-212210000D03*
D39*
X288707500Y-218210000D03*
%TD*%
D23*
%TO.C,H4*%
X204175000Y-143820000D03*
X200718109Y-145251891D03*
X202150000Y-141795000D03*
X203581891Y-145251891D03*
X202150000Y-145845000D03*
X203581891Y-142388109D03*
X200125000Y-143820000D03*
X200718109Y-142388109D03*
D22*
X202150000Y-143820000D03*
%TD*%
D19*
%TO.C,Q1*%
X246480000Y-186105000D03*
X244580000Y-186105000D03*
X245530000Y-187980000D03*
%TD*%
D28*
%TO.C,D5*%
X277950000Y-195800000D03*
X274650000Y-195800000D03*
%TD*%
D41*
%TO.C,J2*%
X285195000Y-150775000D03*
D42*
X287735000Y-150775000D03*
X285195000Y-153315000D03*
X287735000Y-153315000D03*
X285195000Y-155855000D03*
X287735000Y-155855000D03*
X285195000Y-158395000D03*
X287735000Y-158395000D03*
X285195000Y-160935000D03*
X287735000Y-160935000D03*
X285195000Y-163475000D03*
X287735000Y-163475000D03*
X285195000Y-166015000D03*
X287735000Y-166015000D03*
X285195000Y-168555000D03*
X287735000Y-168555000D03*
X285195000Y-171095000D03*
X287735000Y-171095000D03*
X285195000Y-173635000D03*
X287735000Y-173635000D03*
X285195000Y-176175000D03*
X287735000Y-176175000D03*
X285195000Y-178715000D03*
X287735000Y-178715000D03*
X285195000Y-181255000D03*
X287735000Y-181255000D03*
X285195000Y-183795000D03*
X287735000Y-183795000D03*
X285195000Y-186335000D03*
X287735000Y-186335000D03*
X285195000Y-188875000D03*
X287735000Y-188875000D03*
X285195000Y-191415000D03*
X287735000Y-191415000D03*
X285195000Y-193955000D03*
X287735000Y-193955000D03*
X285195000Y-196495000D03*
X287735000Y-196495000D03*
X285195000Y-199035000D03*
X287735000Y-199035000D03*
%TD*%
D25*
%TO.C,R8*%
X258000000Y-175475000D03*
X258000000Y-177125000D03*
%TD*%
D24*
%TO.C,R10*%
X230920000Y-149915000D03*
X230920000Y-148265000D03*
%TD*%
D19*
%TO.C,Q8*%
X279250000Y-181062500D03*
X277350000Y-181062500D03*
X278300000Y-182937500D03*
%TD*%
D10*
%TO.C,C10*%
X239425000Y-176500000D03*
X240975000Y-176500000D03*
%TD*%
D28*
%TO.C,D4*%
X272550000Y-195800000D03*
X269250000Y-195800000D03*
%TD*%
D24*
%TO.C,R26*%
X275300000Y-180425000D03*
X275300000Y-178775000D03*
%TD*%
D33*
%TO.C,R2*%
X244925000Y-183890000D03*
X246575000Y-183890000D03*
%TD*%
D43*
%TO.C,RV1*%
X202100000Y-192530000D03*
X204600000Y-187530000D03*
%TD*%
D44*
%TO.C,F1*%
X203390000Y-217300000D03*
X203390000Y-212100000D03*
X203390000Y-202000000D03*
X203390000Y-196800000D03*
%TD*%
D19*
%TO.C,Q4*%
X271150000Y-204912500D03*
X269250000Y-204912500D03*
X270200000Y-206787500D03*
%TD*%
D10*
%TO.C,C13*%
X284010000Y-209250000D03*
X285560000Y-209250000D03*
%TD*%
D45*
%TO.C,SD_CARD1*%
X219985000Y-143460000D03*
X221085000Y-143460000D03*
X222185000Y-143460000D03*
X223285000Y-143460000D03*
X224385000Y-143460000D03*
X225485000Y-143460000D03*
X226585000Y-143460000D03*
D46*
X227635000Y-143460000D03*
D47*
X217350000Y-149610000D03*
X217350000Y-153310000D03*
D48*
X228845000Y-143810000D03*
D49*
X226820000Y-154285000D03*
X220850000Y-154285000D03*
D50*
X217525000Y-143585000D03*
%TD*%
D19*
%TO.C,Q2*%
X259240000Y-186112500D03*
X257340000Y-186112500D03*
X258290000Y-187987500D03*
%TD*%
D25*
%TO.C,R18*%
X273100000Y-208975000D03*
X273100000Y-210625000D03*
%TD*%
D51*
%TO.C,L1*%
X225662500Y-156700000D03*
X223537500Y-156700000D03*
%TD*%
D52*
%TO.C,C7*%
X222320000Y-165290000D03*
X222320000Y-159890000D03*
%TD*%
D23*
%TO.C,H1*%
X204185000Y-223650000D03*
X202160000Y-225675000D03*
X202160000Y-221625000D03*
X200135000Y-223650000D03*
D22*
X202160000Y-223650000D03*
D23*
X203591891Y-222218109D03*
X200728109Y-225081891D03*
X203591891Y-225081891D03*
X200728109Y-222218109D03*
%TD*%
D53*
%TO.C,U5*%
X233820000Y-147027500D03*
X233820000Y-149567500D03*
X233820000Y-152107500D03*
X233820000Y-154647500D03*
X233820000Y-157187500D03*
X233820000Y-159727500D03*
X254140000Y-159727500D03*
X254140000Y-157187500D03*
X254140000Y-154647500D03*
X254140000Y-152107500D03*
X254140000Y-149567500D03*
X254140000Y-147027500D03*
%TD*%
D24*
%TO.C,R27*%
X275300000Y-183625000D03*
X275300000Y-181975000D03*
%TD*%
D34*
%TO.C,PW_LD1*%
X240987500Y-168900000D03*
X239412500Y-168900000D03*
%TD*%
D54*
%TO.C,RST2*%
X278400000Y-176400000D03*
X272600000Y-176400000D03*
X272600000Y-172400000D03*
X278400000Y-172400000D03*
%TD*%
D24*
%TO.C,R22*%
X263500000Y-180425000D03*
X263500000Y-178775000D03*
%TD*%
D55*
%TO.C,Y1*%
X287670000Y-205510000D03*
X279170000Y-205510000D03*
%TD*%
D33*
%TO.C,Rb1*%
X239375000Y-174600000D03*
X241025000Y-174600000D03*
%TD*%
D56*
%TO.C,U6*%
X253100000Y-171800000D03*
D57*
X255170000Y-173070000D03*
X253100000Y-174340000D03*
%TD*%
D19*
%TO.C,D7*%
X271150000Y-200162500D03*
X269250000Y-200162500D03*
X270200000Y-202037500D03*
%TD*%
D58*
%TO.C,U2*%
X234462500Y-175050000D03*
X234462500Y-176000000D03*
X234462500Y-176950000D03*
X236737500Y-176950000D03*
X236737500Y-175050000D03*
%TD*%
D59*
%TO.C,REL1B1*%
X256270000Y-194600000D03*
X262270000Y-208800000D03*
X250270000Y-208800000D03*
X250270000Y-196600000D03*
X262270000Y-196600000D03*
%TD*%
D24*
%TO.C,R7*%
X259800000Y-173325000D03*
X259800000Y-171675000D03*
%TD*%
D59*
%TO.C,REL0A1*%
X239760000Y-194600000D03*
X245760000Y-208800000D03*
X233760000Y-208800000D03*
X233760000Y-196600000D03*
X245760000Y-196600000D03*
%TD*%
D60*
%TO.C,U3*%
X214095000Y-170090000D03*
X214095000Y-168390000D03*
D61*
X204945000Y-166690000D03*
D60*
X214095000Y-166690000D03*
X214095000Y-164990000D03*
X214095000Y-163290000D03*
%TD*%
D33*
%TO.C,R5*%
X257265000Y-183940000D03*
X258915000Y-183940000D03*
%TD*%
D62*
%TO.C,PS1*%
X216150000Y-210110000D03*
D27*
X222150000Y-210110000D03*
X210150000Y-176510000D03*
X228150000Y-176510000D03*
%TD*%
D14*
%TO.C,R14*%
X270825000Y-198000000D03*
X269175000Y-198000000D03*
%TD*%
%TO.C,R6*%
X251305000Y-185630000D03*
X249655000Y-185630000D03*
%TD*%
D63*
%TO.C,D9*%
X265650000Y-187700000D03*
X269150000Y-187700000D03*
X265650000Y-189100000D03*
X269150000Y-189100000D03*
%TD*%
D54*
%TO.C,BUT1*%
X262700000Y-172400000D03*
X268500000Y-172400000D03*
X268500000Y-176400000D03*
X262700000Y-176400000D03*
%TD*%
D10*
%TO.C,C16*%
X277315000Y-209280000D03*
X278865000Y-209280000D03*
%TD*%
D64*
%TO.C,L3*%
X233575000Y-180500000D03*
X236625000Y-180500000D03*
%TD*%
D65*
%TO.C,C5*%
X203240000Y-174740000D03*
X203240000Y-180140000D03*
%TD*%
M02*
